# Alias Wavefront OBJ File Exported from SketchUp
# with OBJexporter (c) 2013 TIG
# Units = meters

mtllib test.mtl

g test-SKP-Default_Material
usemtl Default_Material
v 36.421909425 0 24.0567365606
v -7.00470962062 0 4.56838678331
v -15.7524929772 0 18.7441806442
v 13.8652903794 0 4.56838678331
v 13.8652903794 0 -2.32161321669
v 19.21 0 -26.27
v -32.9644024022 0 -31.5825559164
v -7.00470962062 0 -2.32161321669
v 13.8652903794 5.64 4.56838678331
v 4.58529037938 5.64 -2.32161321669
v 4.58529037938 5.64 4.56838678331
v 13.8652903794 5.64 -2.32161321669
v -7.00470962062 2.82 -2.32161321669
v 4.58529037938 2.82 -2.32161321669
v -0.954709620625 2.82 -2.32161321669
v 4.58529037938 4.79076039657 4.56838678331
v -7.00470962062 1.00945239471 4.56838678331
v -0.954709620625 1.00945239471 4.56838678331
v -0.954709620625 4.79076039657 4.56838678331
vt 1433.93344193 -947.115612622
vt -275.775969316 -179.857747374
vt -620.176888865 -737.959867882
vt 545.877573991 -179.857747374
vt 545.877573991 91.4020951452
vt 756.299212598 1034.2519685
vt -1297.8111182 1243.40771324
vt -275.775969316 91.4020951452
vt 180.523243282 91.4020951452
vt 180.523243282 -179.857747374
vt 91.4020951452 0
vt -179.857747374 222.047244094
vt -179.857747374 0
vt 91.4020951452 222.047244094
vt 275.775969316 111.023622047
vt -545.877573991 0
vt 275.775969316 0
vt -180.523243282 111.023622047
vt -545.877573991 222.047244094
vt 37.586992938 111.023622047
vt -180.523243282 222.047244094
vt -91.4020951452 222.047244094
vt 179.857747374 188.612614038
vt 179.857747374 222.047244094
vt -91.4020951452 111.023622047
vt 179.857747374 0
vt 179.857747374 39.7422202643
vt -91.4020951452 0
vt -37.586992938 -163.85154709
vt -275.775969316 116.617596318
vt -275.775969316 -163.85154709
vt -37.586992938 116.617596318
vt 545.877573991 0
vt -37.586992938 39.7422202643
vt -275.775969316 0
vt 545.877573991 222.047244094
vt 180.523243282 188.612614038
vt 180.523243282 222.047244094
vt -37.586992938 188.612614038
vt -275.775969316 39.7422202643
vt -180.523243282 224.792143833
vt 37.586992938 -57.3460383433
vt 37.586992938 224.792143833
vt -180.523243282 -57.3460383433
vn 0 1 0
vn 1 0 0
vn 0 0 -1
vn -1 0 0
vn 0 0.967164655704 0.254150602511
vn 0 0 1
vn 0 0.961443220577 -0.275003515627
f 1/1/1 2/2/1 3/3/1
f 2/2/1 1/1/1 4/4/1
f 4/4/1 1/1/1 5/5/1
f 5/5/1 1/1/1 6/6/1
f 7/7/1 8/8/1 6/6/1
f 8/8/1 7/7/1 3/3/1
f 8/8/1 3/3/1 2/2/1
f 6/6/1 8/8/1 5/5/1
f 9/4/1 10/9/1 11/10/1
f 10/9/1 9/4/1 12/5/1
f 5/11/2 9/12/2 4/13/2
f 9/12/2 5/11/2 12/14/2
f 13/15/3 5/16/3 8/17/3
f 5/16/3 13/15/3 14/18/3
f 5/16/3 14/18/3 12/19/3
f 14/18/3 13/15/3 15/20/3
f 12/19/3 14/18/3 10/21/3
f 10/22/4 16/23/4 11/24/4
f 16/23/4 10/22/4 14/25/4
f 13/25/4 2/26/4 17/27/4
f 2/26/4 13/25/4 8/28/4
f 18/29/5 13/30/5 17/31/5
f 13/30/5 18/29/5 15/32/5
f 4/33/6 18/34/6 2/35/6
f 18/34/6 4/33/6 9/36/6
f 18/34/6 9/36/6 16/37/6
f 16/37/6 9/36/6 11/38/6
f 19/39/6 18/34/6 16/37/6
f 17/40/6 2/35/6 18/34/6
f 15/25/4 18/27/4 19/23/4
f 16/41/7 15/42/7 19/43/7
f 15/42/7 16/41/7 14/44/7

#EOF
